<?xml version="1.0" encoding="utf-8"?>
<!-- Generator: Adobe Illustrator 25.3.1, SVG Export Plug-In . SVG Version: 6.00 Build 0)  -->
<svg version="1.1" id="圖層_1" xmlns="http://www.w3.org/2000/svg" xmlns:xlink="http://www.w3.org/1999/xlink" x="0px" y="0px"
	 viewBox="0 0 21 21" style="enable-background:new 0 0 21 21;" xml:space="preserve">
<style type="text/css">
	.st0{fill:url(#SVGID_1_);}
	.st1{fill:url(#SVGID_2_);}
</style>
<linearGradient id="SVGID_1_" gradientUnits="userSpaceOnUse" x1="1.1308" y1="3.7547" x2="27.9496" y2="23.0836">
	<stop  offset="5.000000e-02" style="stop-color:#EF0C29"/>
	<stop  offset="0.1289" style="stop-color:#E73832"/>
	<stop  offset="0.2337" style="stop-color:#EF0C29"/>
	<stop  offset="0.2404" style="stop-color:#EA0B27"/>
	<stop  offset="0.2928" style="stop-color:#C50616"/>
	<stop  offset="0.3417" style="stop-color:#AB030A"/>
	<stop  offset="0.3853" style="stop-color:#9B0103"/>
	<stop  offset="0.4191" style="stop-color:#950000"/>
	<stop  offset="0.4515" style="stop-color:#9C0504"/>
	<stop  offset="0.4986" style="stop-color:#AF1210"/>
	<stop  offset="0.5546" style="stop-color:#CF2823"/>
	<stop  offset="0.59" style="stop-color:#E73832"/>
	<stop  offset="0.63" style="stop-color:#E73832"/>
	<stop  offset="0.6911" style="stop-color:#EF0C29"/>
	<stop  offset="0.75" style="stop-color:#E73832"/>
	<stop  offset="0.8" style="stop-color:#E73832"/>
	<stop  offset="0.84" style="stop-color:#950000"/>
	<stop  offset="0.9989" style="stop-color:#950000"/>
</linearGradient>
<path class="st0" d="M5.1,1.5c5-3,11.5-1.4,14.4,3.6s1.4,11.5-3.6,14.4S4.5,20.9,1.5,15.9c0,0,0,0,0,0C-1.5,10.9,0.1,4.5,5.1,1.5z
	 M13.7,15.9c2.9-1.8,3.9-5.6,2.1-8.5s-5.6-3.9-8.5-2.1s-3.9,5.6-2.1,8.5c0,0,0,0,0,0C7,16.7,10.8,17.6,13.7,15.9
	C13.7,15.9,13.7,15.9,13.7,15.9z M5.4,5.2l2.8-1.7C7.8,3,7.6,2.5,7.2,2C7.1,1.9,6.9,1.8,6.7,1.8C6,2.2,5.3,2.7,4.6,3.1
	C4.5,3.2,4.4,3.4,4.4,3.6C4.7,4.1,5.1,4.7,5.4,5.2z M12.9,17.6c0.3,0.5,0.6,1,0.9,1.5c0.1,0.1,0.3,0.2,0.5,0.1
	c0.7-0.4,1.4-0.8,2.2-1.3c0.1-0.1,0.2-0.3,0.1-0.4c-0.3-0.6-0.6-1.1-0.9-1.6L12.9,17.6z M4.6,17.9c0.8,0.7,1.8,1.2,2.8,1.5l1-1.8
	l-2.9-1.6L4.6,17.9z M20,12l-0.1-3.2h-2.2V12H20z M3.3,12.3L3.2,9.1L1,9.1l0.1,3.2H3.3z M15.4,4.9L16.5,3l-2.9-1.5l-1,1.9L15.4,4.9z
	"/>
<linearGradient id="SVGID_2_" gradientUnits="userSpaceOnUse" x1="7.9479" y1="8.8648" x2="15.9613" y2="13.7776">
	<stop  offset="5.000000e-02" style="stop-color:#EF0C29"/>
	<stop  offset="0.1289" style="stop-color:#E73832"/>
	<stop  offset="0.2337" style="stop-color:#EF0C29"/>
	<stop  offset="0.2404" style="stop-color:#EA0B27"/>
	<stop  offset="0.2928" style="stop-color:#C50616"/>
	<stop  offset="0.3417" style="stop-color:#AB030A"/>
	<stop  offset="0.3853" style="stop-color:#9B0103"/>
	<stop  offset="0.4191" style="stop-color:#950000"/>
	<stop  offset="0.4515" style="stop-color:#9C0504"/>
	<stop  offset="0.4986" style="stop-color:#AF1210"/>
	<stop  offset="0.5546" style="stop-color:#CF2823"/>
	<stop  offset="0.59" style="stop-color:#E73832"/>
	<stop  offset="0.63" style="stop-color:#E73832"/>
	<stop  offset="0.6911" style="stop-color:#EF0C29"/>
	<stop  offset="0.75" style="stop-color:#E73832"/>
	<stop  offset="0.8" style="stop-color:#E73832"/>
	<stop  offset="0.84" style="stop-color:#950000"/>
	<stop  offset="0.9989" style="stop-color:#950000"/>
</linearGradient>
<path class="st1" d="M9.2,13.6L7.9,13c-0.4-0.2-0.3-0.5-0.2-0.9s0.3-0.4,0.7-0.3c0.6,0.2,1.1,0.4,1.7,0.5c0.4,0.1,0.8,0.1,0.9-0.4
	s-0.1-0.6-0.5-0.8c-0.4-0.2-0.9-0.5-1.3-0.7c-0.7-0.4-1-1.2-0.8-2c0.2-0.8,1-1.4,1.8-1.3h0.5l0.3-0.9c1,0.1,1,0.1,0.9,1.2l1.1,0.5
	c0.4,0.2,0.4,0.5,0.2,0.8S12.9,9.2,12.6,9c-0.5-0.2-0.9-0.3-1.4-0.4c-0.4-0.1-0.8-0.2-1,0.3s0.2,0.6,0.6,0.8s0.8,0.4,1.1,0.6
	c0.7,0.4,1.1,1.2,0.8,2c-0.2,0.8-0.9,1.4-1.7,1.5h-0.6l-0.3,0.9l-1-0.2L9.2,13.6z"/>
</svg>
