<?xml version="1.0" encoding="utf-8"?>
<!-- Generator: Adobe Illustrator 25.3.1, SVG Export Plug-In . SVG Version: 6.00 Build 0)  -->
<svg version="1.1" id="圖層_1" xmlns="http://www.w3.org/2000/svg" xmlns:xlink="http://www.w3.org/1999/xlink" x="0px" y="0px"
	 viewBox="0 0 28.9 14.8" style="enable-background:new 0 0 28.9 14.8;" xml:space="preserve">
<style type="text/css">
	.st0{fill:url(#SVGID_1_);}
</style>
<linearGradient id="SVGID_1_" gradientUnits="userSpaceOnUse" x1="3.3469" y1="-0.6138" x2="28.112" y2="14.0036">
	<stop  offset="5.000000e-02" style="stop-color:#EF0C29"/>
	<stop  offset="0.1289" style="stop-color:#E73832"/>
	<stop  offset="0.2337" style="stop-color:#EF0C29"/>
	<stop  offset="0.2404" style="stop-color:#EA0B27"/>
	<stop  offset="0.2928" style="stop-color:#C50616"/>
	<stop  offset="0.3417" style="stop-color:#AB030A"/>
	<stop  offset="0.3853" style="stop-color:#9B0103"/>
	<stop  offset="0.4191" style="stop-color:#950000"/>
	<stop  offset="0.4515" style="stop-color:#9C0504"/>
	<stop  offset="0.4986" style="stop-color:#AF1210"/>
	<stop  offset="0.5546" style="stop-color:#CF2823"/>
	<stop  offset="0.59" style="stop-color:#E73832"/>
	<stop  offset="0.63" style="stop-color:#E73832"/>
	<stop  offset="0.6911" style="stop-color:#EF0C29"/>
	<stop  offset="0.75" style="stop-color:#E73832"/>
	<stop  offset="0.8" style="stop-color:#E73832"/>
	<stop  offset="0.84" style="stop-color:#950000"/>
	<stop  offset="0.9989" style="stop-color:#950000"/>
</linearGradient>
<path class="st0" d="M28.1,2.4c-0.8-0.2-1.6-0.3-2.4-0.3c-1.9,0.1-3.9,0.3-5.7,0.8c-0.3,0.1-0.6,0-0.8-0.2c-0.7-0.8-1.5-1.4-2.4-1.9
	C15.9,0.3,15,0.1,14,0c-0.5,0-0.6,0.2-0.4,0.6s0.4,0.8,0.5,1.2c0.4,0.9,0.6,1.8,0.7,2.7c0,0.3-0.1,0.3-0.6,0.6
	c-0.3,0.1-0.6,0.2-0.9,0.2c-0.5,0.1-0.8,0.2-1.1-0.1S11.4,4.7,11,4.4c-0.1-0.1-0.3-0.2-0.4,0s-0.1,0.3-0.1,0.4
	c0.1,0.2,0.2,0.5,0.2,0.8c0,0.4-0.1,0.7-0.5,0.7c-0.5,0.1-1,0.1-1.5,0.1C7.9,6.6,7,6.1,6.7,5.4C5.8,3.6,4.6,2.1,3.1,0.9
	C3,0.7,2.8,0.5,2.6,0.7S2.4,1,2.4,1.2v3.1c0,0.4,0,0.9,0,1.3s-2,2.8-2.3,3.1C0,8.8,0,8.9,0,9l0,0c0.1,0.1,0.2,0.2,0.4,0.1
	C1.3,8.8,4,7.7,4.7,7.3l0,0c0.3-0.1,0.7-0.1,1,0.1c0,0.2,0.6,0.6,0.9,0.8c0.8,0.6,2.1,1.4,2.1,1.4c1.1,0.5,1.1,0.6,0.5,2
	c-0.2,0.4-0.1,0.6,0.3,0.6c0.8,0,1.7-0.3,2.3-0.9c0.2-0.2,0.4-0.2,0.6-0.1c1.3,0.5,2.7,0.6,4,0.4c0.5-0.1,0.7,0,0.8,0.4
	c0.3,0.8,0.6,1.6,1,2.3c0.1,0.2,0.2,0.4,0.4,0.4s0.3-0.3,0.3-0.4c0.3-0.9,0.7-1.7,1-2.6l0.1-0.2c0.2,0.1,0.3,0.2,0.5,0.3
	c0.7,0.6,1.3,1.3,1.9,2c0.1,0.1,0.2,0.4,0.5,0.3s0.3-0.3,0.3-0.4s0.3-1.5,0.3-1.7V11v-0.4v-0.2c0,0,0-0.8,0.4-1
	c0.2-0.1,0.5-0.3,0.7-0.4c1.1-0.8,2-1.6,2.9-2.7c0.1-0.2,0.3-0.4,0.3-0.5c0.3-0.6,0.6-1.2,0.8-1.8C29,3.1,28.9,2.9,28.1,2.4z
	 M3.5,3.4C3.4,3.2,3.2,3.1,3,3.1V2.6C3,2.3,3,2,3,1.6c0.7,0.6,1.3,1.3,1.8,2L5.1,4l0.3,0.4c0.4,0.5,0.7,1,1,1.6
	C6.5,6.4,6.7,6.6,7,6.8H5.8C5.2,5.5,4.4,4.4,3.5,3.4z M10.9,11.4c-0.2,0.1-0.6,0.4-0.8,0.2s0-0.5,0.1-0.8c0-0.1,0.1-0.1,0.2-0.1
	l0.9,0.4C11.3,11.2,11.1,11.3,10.9,11.4L10.9,11.4z M15.9,11.1c-2.4,0-4.7-0.6-6.8-1.7C8.5,9,8,8.6,7.6,8.2l0.9,0.3
	c0.2,0.1,0.4,0.1,0.6,0.2l0,0c1,0.3,2.1,0.5,3.1,0.7h0.1c1.3,0.2,2.6,0.3,3.9,0.2c0.3,0,1-0.1,1,0.3C17.2,9.9,17.7,11.2,15.9,11.1
	L15.9,11.1z M18.7,13.6V9c0.6-0.1,1.1-0.2,1.1-0.2c0,0.3,0,0.7-0.1,1C19.5,11.1,19.2,12.4,18.7,13.6L18.7,13.6z M22.1,4.3L22.1,4.3
	c0-0.3,0.2-0.5,0.5-0.5c0.3,0,0.5,0.2,0.5,0.5l0,0c0,0.3-0.2,0.5-0.5,0.5C22.4,4.7,22.2,4.6,22.1,4.3L22.1,4.3z M22.9,13.2
	c-0.7-0.8-1.4-1.5-2.2-2.2l2.3-0.9C23.1,11.2,23.1,12.2,22.9,13.2L22.9,13.2z M28.2,4c0,0.1-0.1,0.2-0.1,0.3
	c-0.1-0.2-0.2-0.4-0.4-0.5c-0.9-0.5-3.8-0.7-6.5,0s-2.9,0.5-2.9,0.5C17.6,3,16.5,2,15.2,1.5c-0.2-0.1-0.4-0.2-0.6-0.2
	c-0.1-0.2-0.2-0.4-0.3-0.7c1.9,0.4,3.6,1.5,4.8,3c0.2,0.2,0.5,0,0.7,0C21,3.2,22.2,3,23.5,2.9c0,0,0,0,0.1,0c0,0,0,0,0,0
	c0.8-0.1,1.5-0.2,2.3-0.2c0.5-0.1,1.1,0,1.6,0.1C28.3,3,28.4,3.2,28.2,4z"/>
</svg>
