<?xml version="1.0" encoding="utf-8"?>
<!-- Generator: Adobe Illustrator 25.3.1, SVG Export Plug-In . SVG Version: 6.00 Build 0)  -->
<svg version="1.1" id="圖層_1" xmlns="http://www.w3.org/2000/svg" xmlns:xlink="http://www.w3.org/1999/xlink" x="0px" y="0px"
	 viewBox="0 0 21.4 18.7" style="enable-background:new 0 0 21.4 18.7;" xml:space="preserve">
<style type="text/css">
	.st0{fill:url(#SVGID_1_);}
	.st1{fill:url(#SVGID_2_);}
</style>
<linearGradient id="SVGID_1_" gradientUnits="userSpaceOnUse" x1="-2.0582" y1="2.2704" x2="25.3042" y2="18.0354">
	<stop  offset="5.000000e-02" style="stop-color:#EF0C29"/>
	<stop  offset="0.1289" style="stop-color:#E73832"/>
	<stop  offset="0.2337" style="stop-color:#EF0C29"/>
	<stop  offset="0.2404" style="stop-color:#EA0B27"/>
	<stop  offset="0.2928" style="stop-color:#C50616"/>
	<stop  offset="0.3417" style="stop-color:#AB030A"/>
	<stop  offset="0.3853" style="stop-color:#9B0103"/>
	<stop  offset="0.4191" style="stop-color:#950000"/>
	<stop  offset="0.4515" style="stop-color:#9C0504"/>
	<stop  offset="0.4986" style="stop-color:#AF1210"/>
	<stop  offset="0.5546" style="stop-color:#CF2823"/>
	<stop  offset="0.59" style="stop-color:#E73832"/>
	<stop  offset="0.63" style="stop-color:#E73832"/>
	<stop  offset="0.6911" style="stop-color:#EF0C29"/>
	<stop  offset="0.75" style="stop-color:#E73832"/>
	<stop  offset="0.8" style="stop-color:#E73832"/>
	<stop  offset="0.84" style="stop-color:#950000"/>
	<stop  offset="0.9989" style="stop-color:#950000"/>
</linearGradient>
<path class="st0" d="M0.3,5.5c0.4-0.9,1.2-1.7,2.1-2.1c0.4-0.2,0.9-0.3,1.4-0.3h1.2C4.9,2.9,3.8,2,3.6,1.6C3.3,1.2,3.5,0.5,3.9,0.2
	c0.4-0.4,1-0.3,1.4,0.1c0,0,0,0,0,0C6.2,1.2,7,2,7.8,2.8C8.1,3,8.4,3.1,8.7,3.1L13,3.1c0.4,0,0.7-0.1,1-0.3l2.5-2.5
	c0.3-0.3,0.9-0.4,1.3-0.2c0.4,0.2,0.6,0.7,0.5,1.2c-0.1,0.2-0.2,0.5-0.4,0.6c-0.3,0.3-0.6,0.6-0.9,0.9c0,0-0.1,0.1-0.1,0.2
	s0.1,0,0.2,0c0.7,0,1.3,0.1,1.9,0.4c0.8,0.4,1.4,1,1.8,1.7C21,5.3,21,5.4,21.1,5.6c0.2,0.5,0.3,1,0.3,1.6c0,0.6,0,1.2,0,1.8
	c0,0.3-0.1,0.6-0.3,0.8c-0.1,0.1-0.3,0.2-0.5,0.2c-0.8,0.1-1.2-0.5-1.3-1.2c0-0.6,0-1.2-0.1-1.8c-0.1-0.6-0.4-1.1-0.9-1.4
	C17.7,5.2,16.9,5,16.1,5H5.3C5.1,5,4.9,5,4.7,5C3.4,5.2,2.5,6.2,2.3,7.4c-0.1,0.9-0.1,5.4,0,6.7c0.1,1.4,1.3,2.6,2.7,2.5
	c3,0,5.9,0,8.9,0c1.1,0,2.2,0,3.4,0c1,0,1.9-0.7,2.1-1.7l0.1-1.5c-0.1-0.4-2-0.1-2.2-0.2c-0.4-0.2-0.5-0.7-0.4-1.1
	c0.1-0.4,0.5-0.7,0.9-0.7c1,0,2,0,3,0c0.2,0,0.4,0.1,0.5,0.4c0,0,0,0,0,0.1c0.1,1.1,0.1,2.2,0,3.3c-0.3,2-2,3.5-4,3.4
	c-4.4,0-8.9,0-13.3,0c-0.3,0-0.6,0-0.8,0c-1.9-0.4-3.2-2-3.2-3.9c0-0.7,0-1.3,0-2c0-1.9,0-3.9,0-5.8C0,6.4,0.1,5.9,0.3,5.5z"/>
<linearGradient id="SVGID_2_" gradientUnits="userSpaceOnUse" x1="-0.2381" y1="14.7476" x2="20.8319" y2="-2.3824" gradientTransform="matrix(1 0 0 -1 0 17.8898)">
	<stop  offset="5.000000e-02" style="stop-color:#EF0C29"/>
	<stop  offset="0.1289" style="stop-color:#E73832"/>
	<stop  offset="0.2337" style="stop-color:#EF0C29"/>
	<stop  offset="0.2404" style="stop-color:#EA0B27"/>
	<stop  offset="0.2928" style="stop-color:#C50616"/>
	<stop  offset="0.3417" style="stop-color:#AB030A"/>
	<stop  offset="0.3853" style="stop-color:#9B0103"/>
	<stop  offset="0.4191" style="stop-color:#950000"/>
	<stop  offset="0.4515" style="stop-color:#9C0504"/>
	<stop  offset="0.4986" style="stop-color:#AF1210"/>
	<stop  offset="0.5546" style="stop-color:#CF2823"/>
	<stop  offset="0.59" style="stop-color:#E73832"/>
	<stop  offset="0.63" style="stop-color:#E73832"/>
	<stop  offset="0.6911" style="stop-color:#EF0C29"/>
	<stop  offset="0.75" style="stop-color:#E73832"/>
	<stop  offset="0.8" style="stop-color:#E73832"/>
	<stop  offset="0.84" style="stop-color:#950000"/>
	<stop  offset="0.9989" style="stop-color:#950000"/>
</linearGradient>
<path class="st1" d="M7.7,8l0.1-0.3C8.2,7,8.5,7,9.2,7.3l0.3,0.2c1,0.7,2.1,1.3,3.1,2c0.2,0.1,0.4,0.3,0.6,0.4
	c0.5,0.3,0.6,0.9,0.4,1.4c-0.1,0.2-0.2,0.3-0.4,0.4c-0.4,0.3-0.8,0.6-1.2,0.8l-2.5,1.5c-0.2,0.1-0.4,0.2-0.6,0.3
	c-0.4,0.2-0.9,0-1.1-0.5c0-0.1,0-0.1,0-0.2c0-0.2-0.1-0.5-0.1-0.7c0-0.4,0-0.8,0-1.2c0-0.2,0-0.3,0-0.5V11c0-0.1,0-0.3,0-0.4
	C7.7,9.7,7.7,8.8,7.7,8z"/>
</svg>
