<?xml version="1.0" encoding="utf-8"?>
<!-- Generator: Adobe Illustrator 25.3.1, SVG Export Plug-In . SVG Version: 6.00 Build 0)  -->
<svg version="1.1" id="圖層_1" xmlns="http://www.w3.org/2000/svg" xmlns:xlink="http://www.w3.org/1999/xlink" x="0px" y="0px"
	 viewBox="0 0 19.5 19.4" style="enable-background:new 0 0 19.5 19.4;" xml:space="preserve">
<style type="text/css">
	.st0{fill:url(#SVGID_1_);}
	.st1{fill:url(#SVGID_2_);}
	.st2{fill:url(#SVGID_3_);}
	.st3{fill:url(#SVGID_4_);}
	.st4{fill:url(#SVGID_5_);}
</style>
<linearGradient id="SVGID_1_" gradientUnits="userSpaceOnUse" x1="-5.893" y1="12.5863" x2="12.237" y2="-6.1637" gradientTransform="matrix(1 0 0 -1 0 19.8898)">
	<stop  offset="5.000000e-02" style="stop-color:#B68C5F"/>
	<stop  offset="0.15" style="stop-color:#B98F62"/>
	<stop  offset="0.25" style="stop-color:#C69C6D"/>
	<stop  offset="0.36" style="stop-color:#A67C52"/>
	<stop  offset="0.59" style="stop-color:#A77D53"/>
	<stop  offset="0.63" style="stop-color:#B0865A"/>
	<stop  offset="0.69" style="stop-color:#C69C6D"/>
	<stop  offset="0.75" style="stop-color:#AD8357"/>
	<stop  offset="0.8" style="stop-color:#986E45"/>
	<stop  offset="0.84" style="stop-color:#91673E"/>
	<stop  offset="1" style="stop-color:#8C6239"/>
</linearGradient>
<path class="st0" d="M2,15.5c0.1,0,0.2,0.1,0.2,0.2L2,15.5z"/>
<linearGradient id="SVGID_2_" gradientUnits="userSpaceOnUse" x1="-5.9082" y1="12.5716" x2="12.2118" y2="-6.1784" gradientTransform="matrix(1 0 0 -1 0 19.8898)">
	<stop  offset="5.000000e-02" style="stop-color:#B68C5F"/>
	<stop  offset="0.15" style="stop-color:#B98F62"/>
	<stop  offset="0.25" style="stop-color:#C69C6D"/>
	<stop  offset="0.36" style="stop-color:#A67C52"/>
	<stop  offset="0.59" style="stop-color:#A77D53"/>
	<stop  offset="0.63" style="stop-color:#B0865A"/>
	<stop  offset="0.69" style="stop-color:#C69C6D"/>
	<stop  offset="0.75" style="stop-color:#AD8357"/>
	<stop  offset="0.8" style="stop-color:#986E45"/>
	<stop  offset="0.84" style="stop-color:#91673E"/>
	<stop  offset="1" style="stop-color:#8C6239"/>
</linearGradient>
<path class="st1" d="M2.1,15.7c0.1,0,0.2,0,0.1,0.1L2.1,15.7z"/>
<linearGradient id="SVGID_3_" gradientUnits="userSpaceOnUse" x1="0.4267" y1="18.6967" x2="18.5567" y2="-5.331630e-02" gradientTransform="matrix(1 0 0 -1 0 19.8898)">
	<stop  offset="5.000000e-02" style="stop-color:#EF0C29"/>
	<stop  offset="0.1289" style="stop-color:#E73832"/>
	<stop  offset="0.2337" style="stop-color:#EF0C29"/>
	<stop  offset="0.2404" style="stop-color:#EA0B27"/>
	<stop  offset="0.2928" style="stop-color:#C50616"/>
	<stop  offset="0.3417" style="stop-color:#AB030A"/>
	<stop  offset="0.3853" style="stop-color:#9B0103"/>
	<stop  offset="0.4191" style="stop-color:#950000"/>
	<stop  offset="0.4515" style="stop-color:#9C0504"/>
	<stop  offset="0.4986" style="stop-color:#AF1210"/>
	<stop  offset="0.5546" style="stop-color:#CF2823"/>
	<stop  offset="0.59" style="stop-color:#E73832"/>
	<stop  offset="0.63" style="stop-color:#E73832"/>
	<stop  offset="0.6911" style="stop-color:#EF0C29"/>
	<stop  offset="0.75" style="stop-color:#E73832"/>
	<stop  offset="0.8" style="stop-color:#E73832"/>
	<stop  offset="0.84" style="stop-color:#950000"/>
	<stop  offset="0.9989" style="stop-color:#950000"/>
</linearGradient>
<path class="st2" d="M10.1,12.7c-0.7,0-1.3-0.6-1.3-1.3c0,0,0-0.1,0-0.1c0-0.7,0.7-1.5,1.3-1.5c0.9,0,1.6,0.6,1.7,1.5
	C11.7,12.2,10.9,12.8,10.1,12.7z"/>
<linearGradient id="SVGID_4_" gradientUnits="userSpaceOnUse" x1="1.9001" y1="20.1199" x2="20.0201" y2="1.3699" gradientTransform="matrix(1 0 0 -1 0 19.8898)">
	<stop  offset="5.000000e-02" style="stop-color:#EF0C29"/>
	<stop  offset="0.1289" style="stop-color:#E73832"/>
	<stop  offset="0.2337" style="stop-color:#EF0C29"/>
	<stop  offset="0.2404" style="stop-color:#EA0B27"/>
	<stop  offset="0.2928" style="stop-color:#C50616"/>
	<stop  offset="0.3417" style="stop-color:#AB030A"/>
	<stop  offset="0.3853" style="stop-color:#9B0103"/>
	<stop  offset="0.4191" style="stop-color:#950000"/>
	<stop  offset="0.4515" style="stop-color:#9C0504"/>
	<stop  offset="0.4986" style="stop-color:#AF1210"/>
	<stop  offset="0.5546" style="stop-color:#CF2823"/>
	<stop  offset="0.59" style="stop-color:#E73832"/>
	<stop  offset="0.63" style="stop-color:#E73832"/>
	<stop  offset="0.6911" style="stop-color:#EF0C29"/>
	<stop  offset="0.75" style="stop-color:#E73832"/>
	<stop  offset="0.8" style="stop-color:#E73832"/>
	<stop  offset="0.84" style="stop-color:#950000"/>
	<stop  offset="0.9989" style="stop-color:#950000"/>
</linearGradient>
<path class="st3" d="M9.3,6.2c0.6,0,1.1,0.5,1.1,1.1c0,0,0,0.1,0,0.1c0,0.6-0.6,1.4-1,1.4C8.7,8.7,8.1,8.1,7.9,7.4
	C8,6.7,8.6,6.2,9.3,6.2z"/>
<linearGradient id="SVGID_5_" gradientUnits="userSpaceOnUse" x1="1.0177" y1="19.2669" x2="19.1377" y2="0.5169" gradientTransform="matrix(1 0 0 -1 0 19.8898)">
	<stop  offset="5.000000e-02" style="stop-color:#EF0C29"/>
	<stop  offset="0.1289" style="stop-color:#E73832"/>
	<stop  offset="0.2337" style="stop-color:#EF0C29"/>
	<stop  offset="0.2404" style="stop-color:#EA0B27"/>
	<stop  offset="0.2928" style="stop-color:#C50616"/>
	<stop  offset="0.3417" style="stop-color:#AB030A"/>
	<stop  offset="0.3853" style="stop-color:#9B0103"/>
	<stop  offset="0.4191" style="stop-color:#950000"/>
	<stop  offset="0.4515" style="stop-color:#9C0504"/>
	<stop  offset="0.4986" style="stop-color:#AF1210"/>
	<stop  offset="0.5546" style="stop-color:#CF2823"/>
	<stop  offset="0.59" style="stop-color:#E73832"/>
	<stop  offset="0.63" style="stop-color:#E73832"/>
	<stop  offset="0.6911" style="stop-color:#EF0C29"/>
	<stop  offset="0.75" style="stop-color:#E73832"/>
	<stop  offset="0.8" style="stop-color:#E73832"/>
	<stop  offset="0.84" style="stop-color:#950000"/>
	<stop  offset="0.9989" style="stop-color:#950000"/>
</linearGradient>
<path class="st4" d="M15.6,2c-2.2-1.7-5.1-2.4-7.8-1.8C0.9,1.5-2.4,10.1,2,15.5c0.1,0,0.2,0.1,0.2,0.2c0.1,0,0.2,0,0.1,0.1v0.1
	c3.4,4.1,9.5,4.7,13.6,1.3c0.7-0.6,1.3-1.2,1.8-2C20.7,11,19.7,4.8,15.6,2z M4.6,7C4.6,7.3,4.3,7.2,4.1,7.3H3.5
	c-0.8,0-1.1-0.1-1.1-0.4v0c0-0.1,0-0.2,0.1-0.4C2.6,6.2,2.7,6,3,6.1s0.9,0.3,1.3,0.5C4.5,6.7,4.7,6.8,4.6,7L4.6,7z M6.1,5
	C5.7,5.2,5.3,5.5,5,5.9c-0.2,0.3-0.5,0-0.7-0.1C2.7,5.3,2.7,5.1,3.9,4c0.4-0.4,0.9-0.7,1.4-0.9c0.6-0.3,0.8,0,0.8,0.5
	c0,0.3,0.1,0.6,0.1,1.1C6.3,4.8,6.2,5,6.1,5z M9.9,13.6c-0.8,0.1-1.6-0.4-1.9-1.1c-0.4-0.8-0.4-1.7,0.2-2.4c0.2-0.2,0.4-0.4,0.6-0.7
	C7,8.8,6.5,7.7,7.1,6.5c0.8-1.2,2.3-1.7,3.6-1c1.1,0.7,1.1,1.9,0,3.4c0.1,0.2,0.4,0.1,0.6,0.2c0.8,0.2,1.4,0.9,1.6,1.7
	c0.2,0.9-0.1,1.8-0.9,2.3C11.3,13.4,10.6,13.6,9.9,13.6L9.9,13.6z M17.3,13.9c-1,1.9-2.7,3.3-4.8,3.9h-0.1c-0.1,0-0.3-0.1-0.3-0.2
	c-0.1-0.2,0-0.3,0.2-0.4c0,0,0,0,0,0c2.7-0.9,4.8-3.2,5.3-6.1C17.7,11,17.8,11,18,11c0.2,0,0.3,0.2,0.3,0.3
	C18.1,12.2,17.8,13.1,17.3,13.9L17.3,13.9z"/>
</svg>
