<?xml version="1.0" encoding="utf-8"?>
<!-- Generator: Adobe Illustrator 25.3.1, SVG Export Plug-In . SVG Version: 6.00 Build 0)  -->
<svg version="1.1" id="圖層_1" xmlns="http://www.w3.org/2000/svg" xmlns:xlink="http://www.w3.org/1999/xlink" x="0px" y="0px"
	 viewBox="0 0 25.5 14.2" style="enable-background:new 0 0 25.5 14.2;" xml:space="preserve">
<style type="text/css">
	.st0{fill:url(#SVGID_1_);}
	.st1{fill:url(#SVGID_2_);}
	.st2{fill:url(#SVGID_3_);}
	.st3{fill:url(#SVGID_4_);}
	.st4{fill:url(#SVGID_5_);}
	.st5{fill:url(#SVGID_6_);}
	.st6{fill:url(#SVGID_7_);}
	.st7{fill:url(#SVGID_8_);}
</style>
<linearGradient id="SVGID_1_" gradientUnits="userSpaceOnUse" x1="-0.1729" y1="13.0051" x2="25.0271" y2="-2.7849" gradientTransform="matrix(1 0 0 -1 0 13.8898)">
	<stop  offset="5.000000e-02" style="stop-color:#EF0C29"/>
	<stop  offset="0.1289" style="stop-color:#E73832"/>
	<stop  offset="0.2337" style="stop-color:#EF0C29"/>
	<stop  offset="0.2404" style="stop-color:#EA0B27"/>
	<stop  offset="0.2928" style="stop-color:#C50616"/>
	<stop  offset="0.3417" style="stop-color:#AB030A"/>
	<stop  offset="0.3853" style="stop-color:#9B0103"/>
	<stop  offset="0.4191" style="stop-color:#950000"/>
	<stop  offset="0.4515" style="stop-color:#9C0504"/>
	<stop  offset="0.4986" style="stop-color:#AF1210"/>
	<stop  offset="0.5546" style="stop-color:#CF2823"/>
	<stop  offset="0.59" style="stop-color:#E73832"/>
	<stop  offset="0.63" style="stop-color:#E73832"/>
	<stop  offset="0.6911" style="stop-color:#EF0C29"/>
	<stop  offset="0.75" style="stop-color:#E73832"/>
	<stop  offset="0.8" style="stop-color:#E73832"/>
	<stop  offset="0.84" style="stop-color:#950000"/>
	<stop  offset="0.9989" style="stop-color:#950000"/>
</linearGradient>
<path class="st0" d="M20.3,14.2H2.7c-0.3,0-0.5,0-0.8-0.1L1.7,14l-0.5-0.2c-0.2-0.1-0.4-0.3-0.6-0.5l-0.2-0.3l-0.2-0.4
	C0.1,12.3,0,12,0,11.7v-1.6c0-0.2,0-0.5,0-0.7V4.8V4.5c0-0.1,0.1-0.2,0.1-0.3L0.1,4c0.1-0.1,0-0.1,0.1-0.2c0.3-0.7,0.9-1.3,1.6-1.6
	h0.1c0.3-0.1,0.5-0.1,0.8-0.1h17.4c1.4,0,2.5,1,2.7,2.3c0,0.1,0,0.2,0,0.4v6.8c0,0.1,0,0.1,0,0.2c0,0.3-0.1,0.5-0.2,0.7l0,0
	c-0.1,0.3-0.3,0.5-0.5,0.8L22,13.5c-0.4,0.3-0.8,0.5-1.2,0.6h-0.2L20.3,14.2L20.3,14.2z M3.3,13.4L3.3,13.4c0.2,0,0.4,0,0.5,0h6.3
	c0.1,0,0.2,0,0.2,0c0.1,0,0.2,0,0.3,0h1.9c1.3,0,2.6,0,3.9,0c0.4,0,0.7,0,1.1,0l0,0h2.5c1.1,0,2-0.8,2-1.9c0,0,0,0,0-0.1
	c0-2.2,0-4.5,0-6.8C22.1,4,21.7,3.4,21,3c-0.3-0.1-0.7-0.2-1-0.2H2.7c-0.3,0-0.6,0-0.8,0.2C1.8,3,1.7,3.1,1.6,3.2
	C1.4,3.3,1.3,3.5,1.1,3.7C1.1,3.8,1,3.9,1,4C0.9,4.2,0.8,4.5,0.8,4.8V11c0,0.2,0,0.4,0,0.7v0.1c0,0.3,0.1,0.5,0.3,0.8
	c0,0.1,0.1,0.1,0.1,0.1C1.4,13,1.6,13.2,2,13.3c0,0,0.1,0,0.1,0.1c0.2,0.1,0.4,0.1,0.7,0.1C2.9,13.5,3.1,13.5,3.3,13.4L3.3,13.4
	L3.3,13.4z"/>
<linearGradient id="SVGID_2_" gradientUnits="userSpaceOnUse" x1="3.2563" y1="18.4839" x2="28.4663" y2="2.6939" gradientTransform="matrix(1 0 0 -1 0 13.8898)">
	<stop  offset="5.000000e-02" style="stop-color:#EF0C29"/>
	<stop  offset="0.1289" style="stop-color:#E73832"/>
	<stop  offset="0.2337" style="stop-color:#EF0C29"/>
	<stop  offset="0.2404" style="stop-color:#EA0B27"/>
	<stop  offset="0.2928" style="stop-color:#C50616"/>
	<stop  offset="0.3417" style="stop-color:#AB030A"/>
	<stop  offset="0.3853" style="stop-color:#9B0103"/>
	<stop  offset="0.4191" style="stop-color:#950000"/>
	<stop  offset="0.4515" style="stop-color:#9C0504"/>
	<stop  offset="0.4986" style="stop-color:#AF1210"/>
	<stop  offset="0.5546" style="stop-color:#CF2823"/>
	<stop  offset="0.59" style="stop-color:#E73832"/>
	<stop  offset="0.63" style="stop-color:#E73832"/>
	<stop  offset="0.6911" style="stop-color:#EF0C29"/>
	<stop  offset="0.75" style="stop-color:#E73832"/>
	<stop  offset="0.8" style="stop-color:#E73832"/>
	<stop  offset="0.84" style="stop-color:#950000"/>
	<stop  offset="0.9989" style="stop-color:#950000"/>
</linearGradient>
<path class="st1" d="M22.8,11c-0.4,0-0.7-0.3-0.7-0.7c0,0,0,0,0-0.1c0-1.4,0-2.7,0-4.1c0-0.3,0.2-0.6,0.5-0.7h0.1
	c0.2,0,0.2,0,0.2,0.2s0,1.9,0,1.9c0,0.4,0.3,0.7,0.6,0.9c0.3,0.1,0.6,0,0.8-0.1c0.1-0.1,0.2-0.2,0.3-0.3c0.1-0.1,0.1-0.2,0.1-0.3
	c0,0,0-0.1,0-0.1c0-0.7,0-1.3,0-2c0-0.1,0-0.1,0.1-0.1c0.1,0,0.2,0,0.3,0.1l0.2,0.1c0.1,0.1,0.2,0.3,0.2,0.5c0,0.1,0,0.1,0,0.2v3.9
	c0,0.3-0.1,0.5-0.4,0.6C24.9,11,24.7,11,24.5,11H22.8z"/>
<linearGradient id="SVGID_3_" gradientUnits="userSpaceOnUse" x1="6.3085" y1="23.3615" x2="31.5185" y2="7.5715" gradientTransform="matrix(1 0 0 -1 0 13.8898)">
	<stop  offset="5.000000e-02" style="stop-color:#EF0C29"/>
	<stop  offset="0.1289" style="stop-color:#E73832"/>
	<stop  offset="0.2337" style="stop-color:#EF0C29"/>
	<stop  offset="0.2404" style="stop-color:#EA0B27"/>
	<stop  offset="0.2928" style="stop-color:#C50616"/>
	<stop  offset="0.3417" style="stop-color:#AB030A"/>
	<stop  offset="0.3853" style="stop-color:#9B0103"/>
	<stop  offset="0.4191" style="stop-color:#950000"/>
	<stop  offset="0.4515" style="stop-color:#9C0504"/>
	<stop  offset="0.4986" style="stop-color:#AF1210"/>
	<stop  offset="0.5546" style="stop-color:#CF2823"/>
	<stop  offset="0.59" style="stop-color:#E73832"/>
	<stop  offset="0.63" style="stop-color:#E73832"/>
	<stop  offset="0.6911" style="stop-color:#EF0C29"/>
	<stop  offset="0.75" style="stop-color:#E73832"/>
	<stop  offset="0.8" style="stop-color:#E73832"/>
	<stop  offset="0.84" style="stop-color:#950000"/>
	<stop  offset="0.9989" style="stop-color:#950000"/>
</linearGradient>
<path class="st2" d="M22.4,1.7c-0.1-0.3-0.1-0.5,0-0.8c0.1-0.3,0.4-0.6,0.7-0.8c0.1-0.1,0.3-0.1,0.4-0.2c0.3,0,0.6,0,0.8,0.1
	l0.2,0.1c0.2,0.1,0.4,0.3,0.5,0.5l0,0c0,0.1,0.1,0.2,0.1,0.2c0.1,0.3,0.1,0.5,0.1,0.8c0,0.1-0.1,0.3-0.1,0.4l-0.2,0.3
	c-0.2,0.2-0.4,0.3-0.6,0.4c-0.3,0.1-0.5,0.1-0.8,0.1c-0.3-0.1-0.5-0.2-0.7-0.4l-0.1-0.1C22.5,2.2,22.4,2,22.4,1.7z"/>
<linearGradient id="SVGID_4_" gradientUnits="userSpaceOnUse" x1="4.4605" y1="20.4107" x2="29.6705" y2="4.6207" gradientTransform="matrix(1 0 0 -1 0 13.8898)">
	<stop  offset="5.000000e-02" style="stop-color:#EF0C29"/>
	<stop  offset="0.1289" style="stop-color:#E73832"/>
	<stop  offset="0.2337" style="stop-color:#EF0C29"/>
	<stop  offset="0.2404" style="stop-color:#EA0B27"/>
	<stop  offset="0.2928" style="stop-color:#C50616"/>
	<stop  offset="0.3417" style="stop-color:#AB030A"/>
	<stop  offset="0.3853" style="stop-color:#9B0103"/>
	<stop  offset="0.4191" style="stop-color:#950000"/>
	<stop  offset="0.4515" style="stop-color:#9C0504"/>
	<stop  offset="0.4986" style="stop-color:#AF1210"/>
	<stop  offset="0.5546" style="stop-color:#CF2823"/>
	<stop  offset="0.59" style="stop-color:#E73832"/>
	<stop  offset="0.63" style="stop-color:#E73832"/>
	<stop  offset="0.6911" style="stop-color:#EF0C29"/>
	<stop  offset="0.75" style="stop-color:#E73832"/>
	<stop  offset="0.8" style="stop-color:#E73832"/>
	<stop  offset="0.84" style="stop-color:#950000"/>
	<stop  offset="0.9989" style="stop-color:#950000"/>
</linearGradient>
<path class="st3" d="M23.2,4.7V3.2c0,0,0.1,0,0.1,0c0.1,0,0.2,0,0.3,0.1c0.3,0.1,0.6,0,0.8-0.1h0.1v4.2c0,0.2,0,0.4-0.1,0.6
	l-0.1,0.1c-0.2,0.2-0.4,0.2-0.7,0.1c-0.1-0.1-0.3-0.2-0.3-0.3c0-0.1,0-0.3,0-0.4V4.7z"/>
<linearGradient id="SVGID_5_" gradientUnits="userSpaceOnUse" x1="-0.1619" y1="13.0327" x2="25.0481" y2="-2.7573" gradientTransform="matrix(1 0 0 -1 0 13.8898)">
	<stop  offset="5.000000e-02" style="stop-color:#EF0C29"/>
	<stop  offset="0.1289" style="stop-color:#E73832"/>
	<stop  offset="0.2337" style="stop-color:#EF0C29"/>
	<stop  offset="0.2404" style="stop-color:#EA0B27"/>
	<stop  offset="0.2928" style="stop-color:#C50616"/>
	<stop  offset="0.3417" style="stop-color:#AB030A"/>
	<stop  offset="0.3853" style="stop-color:#9B0103"/>
	<stop  offset="0.4191" style="stop-color:#950000"/>
	<stop  offset="0.4515" style="stop-color:#9C0504"/>
	<stop  offset="0.4986" style="stop-color:#AF1210"/>
	<stop  offset="0.5546" style="stop-color:#CF2823"/>
	<stop  offset="0.59" style="stop-color:#E73832"/>
	<stop  offset="0.63" style="stop-color:#E73832"/>
	<stop  offset="0.6911" style="stop-color:#EF0C29"/>
	<stop  offset="0.75" style="stop-color:#E73832"/>
	<stop  offset="0.8" style="stop-color:#E73832"/>
	<stop  offset="0.84" style="stop-color:#950000"/>
	<stop  offset="0.9989" style="stop-color:#950000"/>
</linearGradient>
<path class="st4" d="M2,3.9c0.2-0.2,0.5-0.3,0.7-0.3c0.8,0,1.5,0,2.3,0h15c0.1,0,0.2,0,0.4,0c0.5,0.1,0.8,0.5,0.9,1
	c0,0.1,0,0.1,0,0.2v6.6c0,0.6-0.4,1.2-1.1,1.2c0,0-0.1,0-0.1,0h-1.5c-0.1,0-0.2,0-0.3,0c0,0,0,0-0.1,0H18c0,0-0.1,0-0.1,0
	c-0.1,0-0.1,0-0.2,0h-15c-0.5,0-1-0.4-1.1-0.9c0-0.2,0-0.5,0-0.8s0-0.5,0-0.8s0-0.5,0-0.8c0-0.1,0-0.1,0-0.2c0-0.1,0-0.3,0-0.4
	c0,0,0-0.1,0-0.1c0,0,0-0.1,0-0.1l0,0c0-0.2,0-0.5,0-0.7c0,0,0-0.1,0-0.1c0-0.2,0-0.4,0-0.6l0,0c0-0.3,0-0.5,0-0.8c0,0,0,0,0-0.1
	c0-0.2,0-0.3,0-0.5c0,0,0-0.1,0-0.1l0,0c0,0,0,0,0-0.1c0-0.2,0-0.5,0-0.8c0-0.3,0.1-0.6,0.2-0.9L2,3.9z M2.8,6.3L2.8,6.3
	c0,0.2,0,0.5,0,0.8s0,0.4,0,0.6l0,0c0,0,0,0.1,0,0.1c0,0.6,0,1.2,0,1.9c0,0.2,0,0.3,0,0.5c0,0.1,0,0.2,0,0.4c0,0,0,0.1,0,0.1
	c0.1,0.6,0.6,1.1,1.2,1.1h3.1c0.7,0,1.2-0.5,1.2-1.2c0,0,0-0.1,0-0.1V5.9c0-0.1,0-0.2,0-0.3c-0.1-0.6-0.6-1-1.2-1H4
	C3.5,4.6,3,5,2.8,5.5v0.1v0.1C2.8,5.9,2.8,6.1,2.8,6.3L2.8,6.3z M20.1,8.1L20.1,8.1V6.5c0-0.2,0-0.5,0-0.7c0-0.3-0.1-0.5-0.3-0.7
	c-0.3-0.3-0.6-0.4-1-0.4h-3h-0.2c-0.6,0.1-1,0.6-1,1.2c0,1.5,0,3,0,4.6c0,0.7,0.5,1.2,1.1,1.2c0,0,0.1,0,0.1,0h2.9
	c0.1,0,0.2,0,0.3,0c0.6-0.1,1-0.6,1-1.2L20.1,8.1z M8.7,8.1L8.7,8.1v2.3c0,0.6,0.5,1.2,1.1,1.2c1.1,0,2.2,0,3.2,0
	c0.6,0,1.1-0.5,1.1-1.2V5.9c0-0.1,0-0.1,0-0.2c-0.1-0.6-0.6-1.1-1.2-1.1h-3C9.3,4.6,8.7,5.1,8.7,5.7c0,0.1,0,0.1,0,0.2V8.1z"/>
<linearGradient id="SVGID_6_" gradientUnits="userSpaceOnUse" x1="1.6596" y1="15.9391" x2="26.8696" y2="0.1491" gradientTransform="matrix(1 0 0 -1 0 13.8898)">
	<stop  offset="5.000000e-02" style="stop-color:#EF0C29"/>
	<stop  offset="0.1289" style="stop-color:#E73832"/>
	<stop  offset="0.2337" style="stop-color:#EF0C29"/>
	<stop  offset="0.2404" style="stop-color:#EA0B27"/>
	<stop  offset="0.2928" style="stop-color:#C50616"/>
	<stop  offset="0.3417" style="stop-color:#AB030A"/>
	<stop  offset="0.3853" style="stop-color:#9B0103"/>
	<stop  offset="0.4191" style="stop-color:#950000"/>
	<stop  offset="0.4515" style="stop-color:#9C0504"/>
	<stop  offset="0.4986" style="stop-color:#AF1210"/>
	<stop  offset="0.5546" style="stop-color:#CF2823"/>
	<stop  offset="0.59" style="stop-color:#E73832"/>
	<stop  offset="0.63" style="stop-color:#E73832"/>
	<stop  offset="0.6911" style="stop-color:#EF0C29"/>
	<stop  offset="0.75" style="stop-color:#E73832"/>
	<stop  offset="0.8" style="stop-color:#E73832"/>
	<stop  offset="0.84" style="stop-color:#950000"/>
	<stop  offset="0.9989" style="stop-color:#950000"/>
</linearGradient>
<path class="st5" d="M18.9,6.9c-0.2,0.3-0.5,0.7-0.7,1.1c-0.1,0.2-0.2,0.4-0.3,0.6c0,0,0,0,0,0.1c-0.2,0.6-0.3,1.2-0.2,1.8
	c0,0.1,0,0.1-0.1,0.1h-0.9c0,0-0.1,0-0.1-0.1c-0.1-0.6,0-1.2,0.2-1.8C17,8.4,17.3,8,17.6,7.6l0.8-0.8c0,0,0,0,0-0.1
	c-0.3,0.1-0.7,0.1-1,0.1c0,0-0.1,0-0.1,0c-0.3-0.1-0.5-0.1-0.8-0.1c-0.3,0-0.5,0.2-0.6,0.5c-0.1,0.2-0.1,0.5-0.1,0.7
	c0,0.1,0,0.1,0,0.1h-0.5c-0.1,0-0.1,0-0.1-0.1V5.8c0-0.1,0-0.1,0.1-0.1h0.4c0.1,0,0.1,0,0.1,0.1s0,0.3,0,0.4s0.1,0,0.1,0
	c0.3-0.5,0.9-0.7,1.4-0.5c0.2,0.1,0.4,0.1,0.7,0.2l0.4,0.1c0.2,0.1,0.4,0,0.5-0.2c0-0.1,0.1-0.1,0.1-0.1h0.3c0.1,0,0.1,0,0.1,0.1
	c-0.1,0.3-0.2,0.6-0.4,0.8l0,0.2C19,6.9,18.9,6.9,18.9,6.9z"/>
<linearGradient id="SVGID_7_" gradientUnits="userSpaceOnUse" x1="-2.247502e-02" y1="13.2539" x2="25.1875" y2="-2.5361" gradientTransform="matrix(1 0 0 -1 0 13.8898)">
	<stop  offset="5.000000e-02" style="stop-color:#EF0C29"/>
	<stop  offset="0.1289" style="stop-color:#E73832"/>
	<stop  offset="0.2337" style="stop-color:#EF0C29"/>
	<stop  offset="0.2404" style="stop-color:#EA0B27"/>
	<stop  offset="0.2928" style="stop-color:#C50616"/>
	<stop  offset="0.3417" style="stop-color:#AB030A"/>
	<stop  offset="0.3853" style="stop-color:#9B0103"/>
	<stop  offset="0.4191" style="stop-color:#950000"/>
	<stop  offset="0.4515" style="stop-color:#9C0504"/>
	<stop  offset="0.4986" style="stop-color:#AF1210"/>
	<stop  offset="0.5546" style="stop-color:#CF2823"/>
	<stop  offset="0.59" style="stop-color:#E73832"/>
	<stop  offset="0.63" style="stop-color:#E73832"/>
	<stop  offset="0.6911" style="stop-color:#EF0C29"/>
	<stop  offset="0.75" style="stop-color:#E73832"/>
	<stop  offset="0.8" style="stop-color:#E73832"/>
	<stop  offset="0.84" style="stop-color:#950000"/>
	<stop  offset="0.9989" style="stop-color:#950000"/>
</linearGradient>
<path class="st6" d="M9.4,5.9c0-0.2,0-0.2,0.2-0.2s0.3-0.1,0.4,0s0,0.2,0,0.3v0.1c0,0,0,0.1,0,0.1l0,0l0,0c0.3-0.5,0.9-0.7,1.4-0.5
	c0.3,0.1,0.5,0.2,0.8,0.3l0.2,0.1c0.2,0.1,0.4,0,0.5-0.2c0-0.1,0.1-0.1,0.1-0.1h0.3c0.1,0,0.1,0,0.1,0.1c0,0.2-0.1,0.3-0.1,0.4
	c-0.2,0.4-0.4,0.8-0.7,1.1c-0.4,0.6-0.7,1.2-0.8,1.8c-0.1,0.4-0.1,0.8-0.1,1.2c0,0.1,0,0.1-0.1,0.1h-0.9c0,0-0.1,0-0.1-0.1
	c0-0.3,0-0.6,0-0.9c0.1-0.6,0.3-1.2,0.7-1.7c0.3-0.4,0.7-0.8,1-1.2l0.1-0.1c0,0-0.1,0-0.1,0c-0.2,0.1-0.5,0.1-0.7,0.1
	c-0.3,0-0.6-0.1-0.9-0.1C10.4,6.6,10.1,6.8,10,7C9.9,7.3,9.8,7.5,9.8,7.8c0,0.1,0,0.2,0,0.3H9.4V5.9z M12.5,6.7L12.5,6.7z"/>
<linearGradient id="SVGID_8_" gradientUnits="userSpaceOnUse" x1="-1.6547" y1="10.6424" x2="23.5453" y2="-5.1476" gradientTransform="matrix(1 0 0 -1 0 13.8898)">
	<stop  offset="5.000000e-02" style="stop-color:#EF0C29"/>
	<stop  offset="0.1289" style="stop-color:#E73832"/>
	<stop  offset="0.2337" style="stop-color:#EF0C29"/>
	<stop  offset="0.2404" style="stop-color:#EA0B27"/>
	<stop  offset="0.2928" style="stop-color:#C50616"/>
	<stop  offset="0.3417" style="stop-color:#AB030A"/>
	<stop  offset="0.3853" style="stop-color:#9B0103"/>
	<stop  offset="0.4191" style="stop-color:#950000"/>
	<stop  offset="0.4515" style="stop-color:#9C0504"/>
	<stop  offset="0.4986" style="stop-color:#AF1210"/>
	<stop  offset="0.5546" style="stop-color:#CF2823"/>
	<stop  offset="0.59" style="stop-color:#E73832"/>
	<stop  offset="0.63" style="stop-color:#E73832"/>
	<stop  offset="0.6911" style="stop-color:#EF0C29"/>
	<stop  offset="0.75" style="stop-color:#E73832"/>
	<stop  offset="0.8" style="stop-color:#E73832"/>
	<stop  offset="0.84" style="stop-color:#950000"/>
	<stop  offset="0.9989" style="stop-color:#950000"/>
</linearGradient>
<path class="st7" d="M3.5,7.9V6.7c0-0.3,0-0.6,0-0.8c0-0.1,0-0.1,0.1-0.1H4c0.1,0,0.1,0,0.1,0.1v0.4l0,0C4.4,5.8,5,5.6,5.5,5.8
	C5.8,5.8,6.1,5.9,6.4,6c0.1,0,0.3,0,0.4,0c0.1,0,0.1,0,0.2,0C7,6,7,5.9,7.1,5.8c0,0,0.1-0.1,0.1-0.1h0.4c0.1,0,0.1,0,0.1,0.1
	C7.6,6,7.5,6.3,7.4,6.5C7.2,7,6.8,7.4,6.5,7.9C6,8.7,5.8,9.6,5.9,10.5c0,0.1,0,0.1-0.1,0.1H4.9c-0.1,0-0.1,0-0.1-0.1
	c0-0.3,0-0.7,0-1c0-0.3,0.1-0.6,0.2-0.9c0.2-0.3,0.4-0.6,0.6-0.9c0.3-0.3,0.6-0.7,0.9-1c0,0,0.1-0.1,0.1-0.1c0,0-0.1,0-0.1,0
	C6.2,6.8,5.9,6.8,5.6,6.8c-0.2,0-0.3,0-0.5-0.1L4.8,6.6C4.5,6.6,4.1,6.8,4.1,7.2C4,7.4,4,7.6,4,7.8c0,0.1,0,0.1-0.1,0.1L3.5,7.9
	C3.6,7.9,3.5,7.9,3.5,7.9z"/>
</svg>
