<?xml version="1.0" encoding="utf-8"?>
<!-- Generator: Adobe Illustrator 25.3.1, SVG Export Plug-In . SVG Version: 6.00 Build 0)  -->
<svg version="1.1" id="圖層_1" xmlns="http://www.w3.org/2000/svg" xmlns:xlink="http://www.w3.org/1999/xlink" x="0px" y="0px"
	 viewBox="0 0 22.6 22.6" style="enable-background:new 0 0 22.6 22.6;" xml:space="preserve">
<style type="text/css">
	.st0{fill:url(#SVGID_1_);}
	.st1{fill:url(#SVGID_2_);}
	.st2{fill:url(#SVGID_3_);}
	.st3{fill:url(#SVGID_4_);}
</style>
<linearGradient id="SVGID_1_" gradientUnits="userSpaceOnUse" x1="-7.1923" y1="14.1277" x2="12.6177" y2="-7.3123" gradientTransform="matrix(1 0 0 -1 -3.483083e-03 21.8899)">
	<stop  offset="5.000000e-02" style="stop-color:#EF0C29"/>
	<stop  offset="0.1289" style="stop-color:#E73832"/>
	<stop  offset="0.2337" style="stop-color:#EF0C29"/>
	<stop  offset="0.2404" style="stop-color:#EA0B27"/>
	<stop  offset="0.2928" style="stop-color:#C50616"/>
	<stop  offset="0.3417" style="stop-color:#AB030A"/>
	<stop  offset="0.3853" style="stop-color:#9B0103"/>
	<stop  offset="0.4191" style="stop-color:#950000"/>
	<stop  offset="0.4515" style="stop-color:#9C0504"/>
	<stop  offset="0.4986" style="stop-color:#AF1210"/>
	<stop  offset="0.5546" style="stop-color:#CF2823"/>
	<stop  offset="0.59" style="stop-color:#E73832"/>
	<stop  offset="0.63" style="stop-color:#E73832"/>
	<stop  offset="0.6911" style="stop-color:#EF0C29"/>
	<stop  offset="0.75" style="stop-color:#E73832"/>
	<stop  offset="0.8" style="stop-color:#E73832"/>
	<stop  offset="0.84" style="stop-color:#950000"/>
	<stop  offset="0.9989" style="stop-color:#950000"/>
</linearGradient>
<path class="st0" d="M0.8,21.3l4.3-4.9c0.1-0.1,0.3-0.2,0.5,0L6,16.7c0.1,0.1,0.2,0.3,0,0.5l-4.3,4.9c-0.1,0.1-0.3,0.2-0.5,0
	l-0.3-0.3C0.7,21.7,0.7,21.4,0.8,21.3z"/>
<linearGradient id="SVGID_2_" gradientUnits="userSpaceOnUse" x1="-6.8008" y1="14.499" x2="13.0192" y2="-6.941" gradientTransform="matrix(1 0 0 -1 -7.073688e-03 21.8875)">
	<stop  offset="5.000000e-02" style="stop-color:#EF0C29"/>
	<stop  offset="0.1289" style="stop-color:#E73832"/>
	<stop  offset="0.2337" style="stop-color:#EF0C29"/>
	<stop  offset="0.2404" style="stop-color:#EA0B27"/>
	<stop  offset="0.2928" style="stop-color:#C50616"/>
	<stop  offset="0.3417" style="stop-color:#AB030A"/>
	<stop  offset="0.3853" style="stop-color:#9B0103"/>
	<stop  offset="0.4191" style="stop-color:#950000"/>
	<stop  offset="0.4515" style="stop-color:#9C0504"/>
	<stop  offset="0.4986" style="stop-color:#AF1210"/>
	<stop  offset="0.5546" style="stop-color:#CF2823"/>
	<stop  offset="0.59" style="stop-color:#E73832"/>
	<stop  offset="0.63" style="stop-color:#E73832"/>
	<stop  offset="0.6911" style="stop-color:#EF0C29"/>
	<stop  offset="0.75" style="stop-color:#E73832"/>
	<stop  offset="0.8" style="stop-color:#E73832"/>
	<stop  offset="0.84" style="stop-color:#950000"/>
	<stop  offset="0.9989" style="stop-color:#950000"/>
</linearGradient>
<path class="st1" d="M0.1,18.6l3.3-3.7c0.1-0.1,0.3-0.2,0.5,0l0.3,0.3c0.1,0.1,0.2,0.3,0,0.5l-3.3,3.7c-0.1,0.1-0.3,0.2-0.5,0
	l-0.3-0.3C0,18.9,0,18.7,0.1,18.6z"/>
<linearGradient id="SVGID_3_" gradientUnits="userSpaceOnUse" x1="-6.4438" y1="14.8163" x2="13.3662" y2="-6.6137" gradientTransform="matrix(1 0 0 -1 1.572175e-03 21.8904)">
	<stop  offset="5.000000e-02" style="stop-color:#EF0C29"/>
	<stop  offset="0.1289" style="stop-color:#E73832"/>
	<stop  offset="0.2337" style="stop-color:#EF0C29"/>
	<stop  offset="0.2404" style="stop-color:#EA0B27"/>
	<stop  offset="0.2928" style="stop-color:#C50616"/>
	<stop  offset="0.3417" style="stop-color:#AB030A"/>
	<stop  offset="0.3853" style="stop-color:#9B0103"/>
	<stop  offset="0.4191" style="stop-color:#950000"/>
	<stop  offset="0.4515" style="stop-color:#9C0504"/>
	<stop  offset="0.4986" style="stop-color:#AF1210"/>
	<stop  offset="0.5546" style="stop-color:#CF2823"/>
	<stop  offset="0.59" style="stop-color:#E73832"/>
	<stop  offset="0.63" style="stop-color:#E73832"/>
	<stop  offset="0.6911" style="stop-color:#EF0C29"/>
	<stop  offset="0.75" style="stop-color:#E73832"/>
	<stop  offset="0.8" style="stop-color:#E73832"/>
	<stop  offset="0.84" style="stop-color:#950000"/>
	<stop  offset="0.9989" style="stop-color:#950000"/>
</linearGradient>
<path class="st2" d="M3.6,21.7L6.9,18c0.1-0.1,0.3-0.2,0.5,0l0.3,0.3c0.1,0.1,0.2,0.3,0,0.5l-3.3,3.7c-0.1,0.1-0.3,0.2-0.5,0
	l-0.3-0.3C3.5,22.1,3.5,21.8,3.6,21.7z"/>
<linearGradient id="SVGID_4_" gradientUnits="userSpaceOnUse" x1="2.2309" y1="22.8407" x2="22.0409" y2="1.4007" gradientTransform="matrix(1 0 0 -1 0 21.8898)">
	<stop  offset="5.000000e-02" style="stop-color:#EF0C29"/>
	<stop  offset="0.1289" style="stop-color:#E73832"/>
	<stop  offset="0.2337" style="stop-color:#EF0C29"/>
	<stop  offset="0.2404" style="stop-color:#EA0B27"/>
	<stop  offset="0.2928" style="stop-color:#C50616"/>
	<stop  offset="0.3417" style="stop-color:#AB030A"/>
	<stop  offset="0.3853" style="stop-color:#9B0103"/>
	<stop  offset="0.4191" style="stop-color:#950000"/>
	<stop  offset="0.4515" style="stop-color:#9C0504"/>
	<stop  offset="0.4986" style="stop-color:#AF1210"/>
	<stop  offset="0.5546" style="stop-color:#CF2823"/>
	<stop  offset="0.59" style="stop-color:#E73832"/>
	<stop  offset="0.63" style="stop-color:#E73832"/>
	<stop  offset="0.6911" style="stop-color:#EF0C29"/>
	<stop  offset="0.75" style="stop-color:#E73832"/>
	<stop  offset="0.8" style="stop-color:#E73832"/>
	<stop  offset="0.84" style="stop-color:#950000"/>
	<stop  offset="0.9989" style="stop-color:#950000"/>
</linearGradient>
<path class="st3" d="M12.5,0C6.9,0,2.3,4.5,2.3,10.1c0,5.6,4.5,10.1,10.1,10.1c5.6,0,10.1-4.5,10.1-10.1C22.6,4.6,18.1,0,12.5,0
	C12.5,0,12.5,0,12.5,0z M17.8,3.8c0.6-0.1,1.3,0.2,1.5,0.8c0.7,0.9,1.3,1.9,1.6,3C21,7.8,21,8,20.9,8.2c-0.3,0.5-0.6,1.1-0.9,1.6
	h-4.1l-1.4-2.5l1.8-3.5C16.8,3.8,17.3,3.8,17.8,3.8z M9.2,3.2C9.4,2.8,9.7,2.3,10,1.8c0.1-0.2,0.3-0.3,0.5-0.3
	c1.3-0.3,2.7-0.3,4.1,0c0.4,0.1,0.5,0.4,0.7,0.7s0.5,0.8,0.7,1.2L14,7c-1-0.1-2.1,0-3.1,0L9,3.4L9.2,3.2z M4,7.6
	c0.4-1.3,1.1-2.5,2-3.5c0.2-0.2,0.4-0.3,0.7-0.3c0.6,0,1.3,0,1.9,0l1.8,3.5L9,9.8H5L4.1,8.2C3.9,8,3.9,7.8,4,7.6z M6.7,16.5
	c-0.3,0-0.5-0.1-0.7-0.3c-0.9-1-1.6-2.2-2-3.5c-0.1-0.2-0.1-0.5,0.1-0.7L5,10.4h4l1.4,2.6l-1.9,3.5C7.9,16.5,7.3,16.4,6.7,16.5
	L6.7,16.5z M15,18.5c-0.1,0.1-0.2,0.2-0.4,0.3c-1.4,0.3-2.8,0.3-4.2,0c-0.2,0-0.3-0.1-0.4-0.3c-0.3-0.5-0.6-1-0.9-1.6L9,16.8l2-3.5
	h3l1.9,3.5L15,18.5z M21,12.7c-0.4,1.3-1.1,2.5-2,3.5c-0.2,0.2-0.4,0.3-0.6,0.3h-1.9l-2-3.5c0.5-0.9,1-1.7,1.5-2.6H20
	c0.3,0.5,0.6,1,0.9,1.5C21,12.2,21,12.4,21,12.7L21,12.7z"/>
</svg>
